<svg width="25" height="24" viewBox="0 0 25 24" fill="none" xmlns="http://www.w3.org/2000/svg">
<g clip-path="url(#clip0_331_2949)">
<path d="M12.7382 23.9817C19.3605 23.9817 24.729 18.6132 24.729 11.9908C24.729 5.36848 19.3605 0 12.7382 0C6.1158 0 0.747314 5.36848 0.747314 11.9908C0.747314 18.6132 6.1158 23.9817 12.7382 23.9817Z" fill="#3A5A98"/>
<path d="M21.2205 3.52966C25.9032 8.21237 25.9034 15.8049 21.2203 20.4879C16.5373 25.1707 8.94468 25.1707 4.26196 20.4879L21.2205 3.52966Z" fill="#345387"/>
<path d="M24.6515 13.3414L15.9776 4.66738L11.4742 9.17082L11.7425 9.43911L9.17847 12.0029L11.2771 14.1016L11.0011 14.3775L13.2731 16.6495L10.6538 19.2689L15.1284 23.7435C20.1743 22.7224 24.0692 18.5331 24.6515 13.3414Z" fill="#2E4D72"/>
<path d="M10.6417 7.53644C10.6417 7.90432 10.6417 9.5474 10.6417 9.5474H9.16846V12.0065H10.6417V19.3135H13.6681V12.0065H15.6989C15.6989 12.0065 15.8892 10.8272 15.9812 9.53814C15.7169 9.53814 13.6796 9.53814 13.6796 9.53814C13.6796 9.53814 13.6796 8.10733 13.6796 7.8566C13.6796 7.60551 14.0095 7.26755 14.3357 7.26755C14.6614 7.26755 15.3485 7.26755 15.9846 7.26755C15.9846 6.93241 15.9846 5.77576 15.9846 4.70751C15.1352 4.70751 14.1689 4.70751 13.7427 4.70751C10.5668 4.70736 10.6417 7.16877 10.6417 7.53644Z" fill="white"/>
</g>
<defs>
<clipPath id="clip0_331_2949">
<rect width="24" height="24" fill="white" transform="translate(0.73999)"/>
</clipPath>
</defs>
</svg>
