<svg width="21" height="22" viewBox="0 0 21 22" fill="none" xmlns="http://www.w3.org/2000/svg">
<g clip-path="url(#clip0_331_2944)">
<path d="M4.79881 13.1363L4.08593 15.7976L1.48037 15.8527C0.70169 14.4084 0.26001 12.756 0.26001 11C0.26001 9.30196 0.67297 7.70068 1.40497 6.29072H1.40553L3.72521 6.716L4.74137 9.02176C4.52869 9.6418 4.41277 10.3074 4.41277 11C4.41285 11.7517 4.54901 12.4719 4.79881 13.1363Z" fill="#FBBB00"/>
<path d="M20.5611 9.08704C20.6787 9.70648 20.74 10.3462 20.74 11C20.74 11.7331 20.6629 12.4482 20.5161 13.138C20.0176 15.4854 18.7151 17.535 16.9107 18.9855L16.9101 18.985L13.9884 18.8359L13.5749 16.2545C14.7721 15.5523 15.7078 14.4535 16.2007 13.138H10.7251V9.08704H16.2806H20.5611Z" fill="#518EF8"/>
<path d="M16.9102 18.985L16.9108 18.9855C15.1559 20.396 12.9267 21.24 10.5001 21.24C6.60047 21.24 3.21003 19.0604 1.48047 15.8528L4.79891 13.1364C5.66367 15.4443 7.89003 17.0872 10.5001 17.0872C11.622 17.0872 12.673 16.7839 13.5749 16.2545L16.9102 18.985Z" fill="#28B446"/>
<path d="M17.0362 3.11744L13.7189 5.83328C12.7855 5.24984 11.6821 4.9128 10.5001 4.9128C7.83091 4.9128 5.56291 6.63108 4.74147 9.02176L1.40559 6.29072H1.40503C3.10927 3.00492 6.54247 0.76 10.5001 0.76C12.9847 0.76 15.2628 1.64504 17.0362 3.11744Z" fill="#F14336"/>
</g>
<defs>
<clipPath id="clip0_331_2944">
<rect width="20.48" height="20.48" fill="white" transform="translate(0.26001 0.76)"/>
</clipPath>
</defs>
</svg>
