<svg width="765" height="550" viewBox="0 0 765 550" fill="none" xmlns="http://www.w3.org/2000/svg">
<path d="M561.268 0.317902H0.239258V359.947H561.268V0.317902Z" fill="#E6E6E6"/>
<path d="M545.226 45.4242H16.282V338.671H545.226V45.4242Z" fill="white"/>
<path d="M561.029 0H0V23.8557H561.029V0Z" fill="#2B2B2B"/>
<path d="M17.7126 16.6188C20.1525 16.6188 22.1305 14.6391 22.1305 12.197C22.1305 9.75483 20.1525 7.77509 17.7126 7.77509C15.2726 7.77509 13.2947 9.75483 13.2947 12.197C13.2947 14.6391 15.2726 16.6188 17.7126 16.6188Z" fill="#DB2F44"/>
<path d="M34.4802 16.6188C36.9201 16.6188 38.8981 14.6391 38.8981 12.197C38.8981 9.75483 36.9201 7.77509 34.4802 7.77509C32.0402 7.77509 30.0623 9.75483 30.0623 12.197C30.0623 14.6391 32.0402 16.6188 34.4802 16.6188Z" fill="#F9D71C"/>
<path d="M51.2478 16.6188C53.6877 16.6188 55.6657 14.6391 55.6657 12.197C55.6657 9.75483 53.6877 7.77509 51.2478 7.77509C48.8078 7.77509 46.8298 9.75483 46.8298 12.197C46.8298 14.6391 48.8078 16.6188 51.2478 16.6188Z" fill="#28B446"/>
<path d="M184.816 69.5447H81.3622V181.883H184.816V69.5447Z" fill="#E6E6E6"/>
<path d="M332.48 69.5447H229.026V181.883H332.48V69.5447Z" fill="#E6E6E6"/>
<path d="M480.143 69.5447H376.689V181.883H480.143V69.5447Z" fill="#E6E6E6"/>
<path d="M184.816 202.217H81.3622V314.555H184.816V202.217Z" fill="#E6E6E6"/>
<path d="M332.48 202.217H229.026V314.555H332.48V202.217Z" fill="#E6E6E6"/>
<path d="M480.143 202.217H376.689V314.555H480.143V202.217Z" fill="#E6E6E6"/>
<path d="M254.031 231.088L272.933 223.609L275.131 261.007C275.131 261.007 279.087 272.446 277.769 276.846C277.769 276.846 278.648 284.326 276.449 284.766C274.251 285.206 268.096 286.086 267.661 285.646C267.226 285.205 267.221 283.885 267.221 283.885C267.221 283.885 262.825 286.965 262.386 290.485C262.386 290.485 243.923 296.204 243.483 290.924C243.044 285.645 252.714 281.245 252.714 281.245L260.187 269.805L254.031 231.088Z" fill="white"/>
<path d="M294.035 231.088L312.935 223.609L315.133 261.007C315.133 261.007 319.088 272.446 317.77 276.846C317.77 276.846 318.649 284.326 316.451 284.766C314.253 285.206 308.097 286.086 307.662 285.646C307.227 285.205 307.223 283.885 307.223 283.885C307.223 283.885 302.826 286.965 302.387 290.485C302.387 290.485 283.924 296.204 283.485 290.924C283.045 285.645 292.716 281.245 292.716 281.245L300.189 269.805L294.035 231.088Z" fill="white"/>
<path d="M295.882 86.6696C295.882 86.6696 291.857 97.9259 296.52 103.002L292.632 116.374C292.632 116.374 306.446 157.851 302.499 163.644C302.499 163.644 287.765 171.018 258.294 161.011L270.265 114.53L268.555 94.9106L270.923 85.6932L276.185 85.1706C276.185 85.1706 273.028 97.021 278.816 98.8648C284.605 100.709 290.251 85.4668 290.251 85.4668L295.882 86.6696Z" fill="#DB2F44"/>
<path d="M110.009 159.331L115.089 161.411L139.33 129.523L146.949 166.957L152.028 166.033C155.286 133.759 157.945 100.841 154.683 85.2717L135.867 84.4626L127.325 111.733L123.169 130.219L110.009 159.331Z" fill="white"/>
<path d="M418.278 85.0165C418.278 85.0165 411.346 94.6615 411.685 98.5539C412.023 102.446 416.418 165.903 416.418 165.903L426.732 166.411L423.686 120.722L426.222 108.369L432.478 165.903L445.158 166.242L433.831 91.6166L431.633 85.0174L418.278 85.0165Z" fill="white"/>
<path d="M457.455 240.402C455.615 238.191 452.451 236.996 449.413 236.35C449.5 236.074 440.174 234.145 440.015 234.542L436.499 231.738L425.694 237.353L419.623 233.216L416.802 234.218C416.917 233.72 408.047 235.258 408.047 235.258C406.353 235.319 404.189 235.425 401.766 235.611C393.283 236.265 392.629 258.256 392.629 258.256C396.533 256.658 400.694 255.786 404.91 255.683L407.203 281.986C418.997 280.974 431.366 282.151 444.186 285.034L450.198 264.357L464.198 258.908C464.198 258.908 461.806 245.626 457.455 240.402Z" fill="#DB2F44"/>
<path d="M157.017 227.876C155.5 226.055 152.894 225.07 150.39 224.538C150.465 224.31 142.777 222.721 142.646 223.049L139.748 220.739L130.847 225.365L125.844 221.957L123.521 222.783C123.616 222.373 116.307 223.639 116.307 223.639C114.915 223.69 113.127 223.777 111.132 223.931C104.142 224.469 103.604 242.588 103.604 242.588C106.82 241.271 110.249 240.552 113.723 240.467L115.613 293.521C125.33 292.686 135.521 293.658 146.082 296.033L151.035 247.616L162.571 243.126C162.571 243.126 160.601 232.183 157.017 227.876Z" fill="white"/>
<path d="M652.159 241.998H701.759V215.434C701.759 208.85 699.147 202.537 694.496 197.882C689.845 193.226 683.537 190.611 676.959 190.611C670.382 190.611 664.074 193.226 659.423 197.882C654.772 202.537 652.159 208.85 652.159 215.434V241.998Z" fill="#2B2B2B"/>
<path d="M630.017 537.554H619.35L614.274 496.365H630.019L630.017 537.554Z" fill="#FFB6B6"/>
<path d="M632.738 534.068H611.728C608.177 534.068 604.772 535.48 602.261 537.993C599.75 540.506 598.339 543.914 598.339 547.468V547.903H632.738V534.068Z" fill="#2F2E41"/>
<path d="M757.546 523.304L748.256 528.554L723.605 495.186L737.317 487.439L757.546 523.304Z" fill="#FFB6B6"/>
<path d="M758.203 518.93L739.907 529.264C736.815 531.012 734.543 533.917 733.591 537.341C732.639 540.765 733.085 544.428 734.831 547.523L735.045 547.901L765 530.976L758.203 518.93Z" fill="#2F2E41"/>
<path d="M689.364 352.326L690.187 356.445C690.187 356.445 692.656 358.917 691.422 360.153C690.187 361.389 690.598 367.157 690.598 367.157C691.289 377.675 705.02 436.779 707.476 448.321C707.476 448.321 726.411 460.681 741.229 484.989C756.048 509.297 756.457 515.477 756.457 515.477L739.995 522.482L698.836 472.63C698.836 472.63 687.31 465.626 683.193 459.446C679.076 453.267 653.551 389.405 653.551 389.405L639.141 456.15C639.141 456.15 639.964 480.457 636.26 496.114C633.982 505.994 632.604 516.061 632.144 526.19L612.797 524.13C612.797 524.13 614.032 465.626 616.09 459.445C616.09 459.445 607.445 388.169 624.734 359.741L638.668 322.562L652.314 317.305L689.364 352.326Z" fill="#2B2B2B"/>
<path d="M677.215 197.105C651.243 197.549 651.247 236.217 677.215 236.657C703.186 236.213 703.182 197.545 677.215 197.105Z" fill="#FFB8B8"/>
<path d="M657.226 215.855H661.641L662.842 212.847L662.241 215.855H686.384L685.601 209.561L691.47 215.855H697.323V212.445C697.325 209.81 696.808 207.2 695.803 204.765C694.797 202.33 693.322 200.117 691.462 198.252C689.601 196.388 687.392 194.908 684.961 193.898C682.529 192.888 679.923 192.367 677.29 192.365C674.658 192.363 672.05 192.88 669.617 193.887C667.184 194.894 664.973 196.37 663.11 198.232C661.248 200.094 659.769 202.305 658.76 204.739C657.751 207.172 657.231 209.781 657.229 212.416V212.445L657.226 215.855Z" fill="#2B2B2B"/>
<path d="M650.433 248.205L699.511 248.603L689.142 353.917C689.142 353.917 631.745 350.885 631.71 333.35L637.087 317.768L650.433 248.205Z" fill="#2B2B2B"/>
<path d="M701.62 364.098C700.866 363.173 700.323 362.094 700.03 360.936C699.738 359.779 699.702 358.571 699.926 357.399C700.15 356.226 700.628 355.117 701.327 354.149C702.026 353.181 702.928 352.379 703.97 351.798L701.837 333.258L712.778 329.212L715.422 355.438C716.276 357.254 716.435 359.32 715.87 361.246C715.305 363.172 714.055 364.824 712.356 365.891C710.657 366.957 708.626 367.363 706.648 367.033C704.67 366.702 702.881 365.658 701.62 364.098Z" fill="#FFB6B6"/>
<path d="M693.058 257.675L699.515 248.641C699.515 248.641 703.935 247.659 709.156 253.756C714.377 259.853 717.423 336.062 717.423 336.062L698.279 340.417L686.966 286.417L693.058 257.675Z" fill="#2B2B2B"/>
<path d="M584.881 340.319L586.304 408.026L630.096 431.189L709.847 416.935L711.806 346.556L661.249 328.737L584.881 340.319Z" fill="white"/>
<path d="M629.982 431.92L585.614 408.452L584.168 339.719L661.317 328.02L661.481 328.077L712.519 346.065L710.531 417.523L629.982 431.92ZM586.995 407.599L630.21 430.457L709.164 416.345L711.092 347.046L661.181 329.456L585.592 340.919L586.995 407.599Z" fill="#CACACA"/>
<path d="M629.119 358.677L628.948 358.609L584.622 340.969L585.138 339.669L629.293 357.24L711.71 345.862L711.901 347.249L629.119 358.677Z" fill="#CACACA"/>
<path d="M629.906 357.95L628.507 357.967L629.397 431.197L630.796 431.18L629.906 357.95Z" fill="#CACACA"/>
<path d="M623.518 355.172L607.539 348.688L684.459 336.421L700.438 342.904L623.518 355.172Z" fill="#CACACA"/>
<path d="M585.157 359.96L584.604 361.246L603.135 369.232L603.689 367.946L585.157 359.96Z" fill="#CACACA"/>
<path d="M593.549 383.058L592.995 384.344L611.527 392.33L612.08 391.044L593.549 383.058Z" fill="#2B2B2B"/>
<path d="M341.229 434.383L342.653 502.09L386.445 525.253L466.196 510.999L468.154 440.62L417.598 422.801L341.229 434.383Z" fill="white"/>
<path d="M386.331 525.984L341.963 502.516L340.517 433.783L417.666 422.084L417.83 422.141L468.867 440.129L466.879 511.587L386.331 525.984ZM343.344 501.663L386.559 524.521L465.513 510.41L467.441 441.11L417.53 423.52L341.941 434.983L343.344 501.663Z" fill="#CACACA"/>
<path d="M385.468 452.741L385.296 452.673L340.971 435.033L341.487 433.733L385.642 451.304L468.059 439.926L468.25 441.313L385.468 452.741Z" fill="#CACACA"/>
<path d="M386.254 452.014L384.856 452.031L385.746 525.261L387.144 525.244L386.254 452.014Z" fill="#CACACA"/>
<path d="M375.996 447.642L363.888 442.753L440.808 430.485L452.915 435.375L375.996 447.642Z" fill="#CACACA"/>
<path d="M341.505 454.024L340.952 455.31L359.484 463.296L360.037 462.01L341.505 454.024Z" fill="#CACACA"/>
<path d="M349.897 477.122L349.344 478.408L367.876 486.394L368.429 485.108L349.897 477.122Z" fill="#2B2B2B"/>
<path d="M417.308 443.666L418.961 522.263L469.796 549.151L562.374 532.605L564.647 450.906L505.959 430.222L417.308 443.666Z" fill="#2B2B2B"/>
<path d="M469.664 550L418.159 522.758L416.481 442.97L506.038 429.389L506.229 429.456L565.475 450.336L563.167 533.288L469.664 550ZM419.762 521.767L469.928 548.302L561.581 531.921L563.819 451.475L505.881 431.056L418.134 444.363L419.762 521.767Z" fill="#4F2D32"/>
<path d="M468.662 464.977L468.463 464.898L417.008 444.421L417.607 442.911L468.864 463.308L564.536 450.101L564.758 451.71L468.662 464.977Z" fill="#4F2D32"/>
<path d="M469.575 464.133L467.951 464.153L468.984 549.161L470.608 549.141L469.575 464.133Z" fill="#4F2D32"/>
<path d="M458.489 459.095L443.611 453.383L532.902 439.142L547.781 444.854L458.489 459.095Z" fill="#4F2D32"/>
<path d="M417.629 466.466L416.987 467.959L438.499 477.229L439.141 475.737L417.629 466.466Z" fill="#4F2D32"/>
<path d="M427.37 493.279L426.728 494.772L448.24 504.042L448.882 502.55L427.37 493.279Z" fill="white"/>
<path d="M609.71 351.515C610.789 351.007 611.745 350.269 612.509 349.353C613.273 348.436 613.827 347.362 614.131 346.208C614.436 345.054 614.484 343.847 614.272 342.672C614.061 341.497 613.594 340.383 612.906 339.408L622.845 323.618L614.732 315.232L601.008 337.728C599.449 338.995 598.408 340.79 598.082 342.773C597.757 344.756 598.169 346.79 599.242 348.49C600.314 350.189 601.972 351.435 603.901 351.993C605.831 352.551 607.897 352.381 609.71 351.516V351.515Z" fill="#FFB6B6"/>
<path d="M657.974 252.356L650.854 247.659C650.854 247.659 645.358 248.893 639.514 260.144C633.67 271.395 610.102 321.696 610.102 321.696L619.79 331.538L645.634 292.076L657.974 252.356Z" fill="#2B2B2B"/>
</svg>
