<svg width="150" height="151" viewBox="0 0 150 151" fill="none" xmlns="http://www.w3.org/2000/svg">
<path d="M63.9646 55.9145C60.8195 55.747 57.1548 53.6686 55.7791 51.2657C54.4046 48.8651 55.2444 45.23 57.0706 42.6625C62.8812 34.4853 63.7979 23.3333 58.4944 14.0703C51.2226 1.36987 34.9747 -3.04655 22.2742 4.22519C9.57374 11.4969 5.15615 27.745 12.4282 40.4459C13.9925 43.1782 17.4793 44.1259 20.2115 42.5615C22.9438 40.9971 23.8916 37.5104 22.3272 34.7781C18.1811 27.5368 20.6997 18.2708 27.9411 14.1247C35.1824 9.97865 44.4484 12.4973 48.5945 19.7386C52.7405 26.98 50.2219 36.2459 42.9806 40.392C40.246 41.9577 39.3005 45.4431 40.8649 48.1754L45.4503 56.1839C47.0146 58.9162 47.0063 63.344 45.4308 66.0731L1.70477 141.8C0.129287 144.529 1.06435 148.016 3.78956 149.59C5.6133 150.646 7.77685 150.573 9.47947 149.598C10.3258 149.114 11.0589 148.408 11.5802 147.505L14.9804 141.615C16.5559 138.886 18.0435 136.605 18.2939 136.497C18.4435 136.432 18.5901 136.36 18.7361 136.277L127.864 73.7947C130.597 72.2303 135.312 71.0944 138.392 71.2565L143.973 71.5509C147.129 71.7191 149.803 69.2972 149.97 66.1557C150.136 63.0078 147.718 60.3241 144.574 60.1588L63.9646 55.9145ZM31.9262 112.275L55.1992 71.9647C56.7746 69.2356 60.6006 67.1598 63.7463 67.3271L106.094 69.5534C109.239 69.721 109.572 71.1237 106.84 72.6881L34.0244 114.379C31.2898 115.945 30.3487 115.002 31.9262 112.275Z" fill="#DB2F44"/>
</svg>
