<svg width="61" height="60" viewBox="0 0 61 60" fill="none" xmlns="http://www.w3.org/2000/svg">
<path d="M25.5506 22.131C24.2841 22.0638 22.809 21.2305 22.2551 20.267C21.7019 19.3044 22.0397 17.8468 22.7752 16.8172C25.1142 13.5384 25.4834 9.06666 23.3481 5.3524C20.4209 0.259804 13.8797 -1.51112 8.76671 1.40472C3.65374 4.32052 1.87534 10.8356 4.80291 15.9285C5.43266 17.024 6.83638 17.4041 7.93631 16.7768C9.03628 16.1495 9.41784 14.7514 8.78805 13.6558C7.11891 10.7522 8.13285 7.03671 11.0481 5.37421C13.9633 3.71171 17.6936 4.72162 19.3625 7.62526C21.032 10.5289 20.0179 14.2443 17.1027 15.9068C16.0018 16.5347 15.6212 17.9322 16.251 19.0278L18.0968 22.2391C18.7269 23.3347 18.7232 25.1101 18.0892 26.2044L0.48588 56.5693C-0.148385 57.6636 0.228068 59.0618 1.32518 59.6929C2.05936 60.1164 2.93039 60.0871 3.61582 59.6961C3.95652 59.5021 4.25165 59.219 4.46152 58.8569L5.83037 56.4951C6.46464 55.4008 7.06351 54.4858 7.16432 54.4429C7.22455 54.4168 7.28352 54.388 7.34234 54.3547L51.2751 29.3007C52.3753 28.6732 54.2735 28.2177 55.5134 28.2831L57.7602 28.4009C59.0308 28.4683 60.1073 27.4971 60.1745 26.2377C60.2413 24.9753 59.2679 23.8992 58.0022 23.8329L25.5506 22.131ZM12.6524 44.7304L22.0216 28.5669C22.656 27.4727 24.1963 26.6402 25.4624 26.7072L42.5109 27.5998C43.777 27.6671 43.9111 28.2297 42.8112 28.8569L13.4971 45.5741C12.3962 46.202 12.0173 45.8239 12.6524 44.7304Z" fill="white"/>
</svg>
