<svg width="26" height="28" viewBox="0 0 26 28" fill="none" xmlns="http://www.w3.org/2000/svg">
<path d="M13.1777 0.25C8.35898 0.25 4.42773 4.18125 4.42773 9C4.42773 12.0125 5.96523 14.6875 8.29523 16.2663C3.83648 18.1787 0.677734 22.6038 0.677734 27.75H3.17773C3.17773 22.2125 7.64023 17.75 13.1777 17.75C18.7152 17.75 23.1777 22.2125 23.1777 27.75H25.6777C25.6777 22.6038 22.519 18.18 18.0602 16.265C19.2494 15.4622 20.2238 14.3802 20.898 13.1137C21.5722 11.8472 21.9258 10.4348 21.9277 9C21.9277 4.18125 17.9965 0.25 13.1777 0.25ZM13.1777 2.75C16.644 2.75 19.4277 5.53375 19.4277 9C19.4277 12.4663 16.644 15.25 13.1777 15.25C9.71148 15.25 6.92773 12.4663 6.92773 9C6.92773 5.53375 9.71148 2.75 13.1777 2.75Z" fill="#4F2D32"/>
</svg>
